# This file uses centimeters as units for non-parametric coordinates.

mtllib BulletinBoard.mtl
g default
v -72.264151 22.767031 17.788934
v -71.264151 22.767031 17.788934
v -72.264151 48.129088 17.788934
v -71.264151 48.129088 17.788934
v -72.264151 48.129088 -18.327514
v -71.264151 48.129088 -18.327514
v -72.264151 22.767031 -18.327514
v -71.264151 22.767031 -18.327514
vt 0.049003 0.598934
vt 0.000000 0.034426
vt 0.396415 0.000015
vt 0.445417 0.564523
vt 0.676521 0.000000
vt 0.691097 0.005803
vt 0.481523 0.532253
vt 0.466947 0.526450
vt 0.653632 0.000000
vt 0.668208 0.005803
vt 0.458634 0.532253
vt 0.444057 0.526450
vt 0.575323 0.000007
vt 0.589933 0.005724
vt 0.444934 0.376269
vt 0.430324 0.370552
vt 0.622596 0.189580
vt 0.628313 0.174969
vt 0.998858 0.319968
vt 0.993141 0.334579
vn 0.000000 0.000000 1.000000
vn 0.000000 0.000000 1.000000
vn 0.000000 0.000000 1.000000
vn 0.000000 0.000000 1.000000
vn 0.000000 1.000000 0.000000
vn 0.000000 1.000000 0.000000
vn 0.000000 1.000000 0.000000
vn 0.000000 1.000000 0.000000
vn 0.000000 0.000000 -1.000000
vn 0.000000 0.000000 -1.000000
vn 0.000000 0.000000 -1.000000
vn 0.000000 0.000000 -1.000000
vn 0.000000 -1.000000 0.000000
vn 0.000000 -1.000000 0.000000
vn 0.000000 -1.000000 0.000000
vn 0.000000 -1.000000 0.000000
vn 1.000000 0.000000 0.000000
vn 1.000000 0.000000 0.000000
vn 1.000000 0.000000 0.000000
vn 1.000000 0.000000 0.000000
vn -1.000000 0.000000 0.000000
vn -1.000000 0.000000 0.000000
vn -1.000000 0.000000 0.000000
vn -1.000000 0.000000 0.000000
s off
g Bulletin_board
usemtl initialShadingGroup
f 1/13/1 2/14/2 4/15/3 3/16/4
f 3/5/5 4/6/6 6/7/7 5/8/8
f 5/17/9 6/18/10 8/19/11 7/20/12
f 7/9/13 8/10/14 2/11/15 1/12/16
f 2/1/17 8/2/18 6/3/19 4/4/20
f 7//21 1//22 3//23 5//24
