# This file uses centimeters as units for non-parametric coordinates.

mtllib ShelfFIller.mtl
g default
v -6.199841 38.033078 -74.251709
v -4.959872 38.033078 -74.251709
v -3.719905 38.033078 -74.251709
v -2.479936 38.033078 -74.251709
v -1.239968 38.033078 -74.251709
v 0.000000 38.033078 -74.251709
v 1.239968 38.033078 -74.251709
v 2.479936 38.033078 -74.251709
v 3.719905 38.033078 -74.251709
v 4.959873 38.033078 -74.251709
v 6.199841 38.033078 -74.251709
v -6.199841 38.552434 -74.251709
v -4.959872 38.552434 -74.251709
v -3.719905 38.552434 -74.251709
v -2.479936 38.552434 -74.251709
v -1.239968 38.552434 -74.251709
v 0.000000 38.552434 -74.251709
v 1.239968 38.552434 -74.251709
v 2.479936 38.552434 -74.251709
v 3.719905 38.552434 -74.251709
v 4.959873 38.552434 -74.251709
v 6.199841 38.552434 -74.251709
v -6.199841 39.071789 -74.251701
v -4.959872 39.071789 -74.251701
v -3.719905 39.071789 -74.251701
v -2.479936 39.071789 -74.251701
v -1.239968 39.071789 -74.251701
v 0.000000 39.071789 -74.251701
v 1.239968 39.071789 -74.251701
v 2.479936 39.071789 -74.251701
v 3.719905 39.071789 -74.251701
v 4.959873 39.071789 -74.251701
v 6.199841 39.071789 -74.251701
v -6.199841 39.591145 -74.251709
v -4.959872 39.591145 -74.251709
v -3.719905 39.591145 -74.251709
v -2.479936 39.591145 -74.251709
v -1.239968 39.591145 -74.251709
v 0.000000 39.591145 -74.251709
v 1.239968 39.591145 -74.251709
v 2.479936 39.591145 -74.251709
v 3.719905 39.591145 -74.251709
v 4.959873 39.591145 -74.251709
v 6.199841 39.591145 -74.251709
v -6.199841 40.110500 -74.251709
v -4.959872 40.110500 -74.251709
v -3.719905 40.110500 -74.251709
v -2.479936 40.110500 -74.251709
v -1.239968 40.110500 -74.251709
v 0.000000 40.110500 -74.251709
v 1.239968 40.110500 -74.251709
v 2.479936 40.110500 -74.251709
v 3.719905 40.110500 -74.251709
v 4.959873 40.110500 -74.251709
v 6.199841 40.110500 -74.251709
v -6.199841 40.629857 -74.251709
v -4.959872 40.629857 -74.251709
v -3.719905 40.629857 -74.251709
v -2.479936 40.629857 -74.251709
v -1.239968 40.629857 -74.251709
v 0.000000 40.629857 -74.251709
v 1.239968 40.629857 -74.251709
v 2.479936 40.629857 -74.251709
v 3.719905 40.629857 -74.251709
v 4.959873 40.629857 -74.251709
v 6.199841 40.629857 -74.251709
v -6.199841 41.149212 -74.251709
v -4.959872 41.149212 -74.251709
v -3.719905 41.149212 -74.251709
v -2.479936 41.149212 -74.251709
v -1.239968 41.149212 -74.251709
v 0.000000 41.149212 -74.251709
v 1.239968 41.149212 -74.251709
v 2.479936 41.149212 -74.251709
v 3.719905 41.149212 -74.251709
v 4.959873 41.149212 -74.251709
v 6.199841 41.149212 -74.251709
v -6.199841 41.668567 -74.251701
v -4.959872 41.668567 -74.251701
v -3.719905 41.668567 -74.251701
v -2.479936 41.668567 -74.251701
v -1.239968 41.668567 -74.251701
v 0.000000 41.668567 -74.251701
v 1.239968 41.668567 -74.251701
v 2.479936 41.668567 -74.251701
v 3.719905 41.668567 -74.251701
v 4.959873 41.668567 -74.251701
v 6.199841 41.668567 -74.251701
v -6.199841 42.187924 -74.251709
v -4.959872 42.187924 -74.251709
v -3.719905 42.187924 -74.251709
v -2.479936 42.187924 -74.251709
v -1.239968 42.187924 -74.251709
v 0.000000 42.187924 -74.251709
v 1.239968 42.187924 -74.251709
v 2.479936 42.187924 -74.251709
v 3.719905 42.187924 -74.251709
v 4.959873 42.187924 -74.251709
v 6.199841 42.187924 -74.251709
v -6.199841 42.707280 -74.251709
v -4.959872 42.707280 -74.251709
v -3.719905 42.707280 -74.251709
v -2.479936 42.707280 -74.251709
v -1.239968 42.707280 -74.251709
v 0.000000 42.707280 -74.251709
v 1.239968 42.707280 -74.251709
v 2.479936 42.707280 -74.251709
v 3.719905 42.707280 -74.251709
v 4.959873 42.707280 -74.251709
v 6.199841 42.707280 -74.251709
v -6.199841 43.226635 -74.251709
v -4.959872 43.226635 -74.251709
v -3.719905 43.226635 -74.251709
v -2.479936 43.226635 -74.251709
v -1.239968 43.226635 -74.251709
v 0.000000 43.226635 -74.251709
v 1.239968 43.226635 -74.251709
v 2.479936 43.226635 -74.251709
v 3.719905 43.226635 -74.251709
v 4.959873 43.226635 -74.251709
v 6.199841 43.226635 -74.251709
vt 0.026604 0.070442
vt 0.121283 0.070441
vt 0.215961 0.070440
vt 0.310640 0.070438
vt 0.405319 0.070437
vt 0.499997 0.070436
vt 0.594676 0.070435
vt 0.689355 0.070433
vt 0.784033 0.070432
vt 0.878712 0.070431
vt 0.973391 0.070429
vt 0.026604 0.110098
vt 0.121283 0.110097
vt 0.215962 0.110095
vt 0.310641 0.110094
vt 0.405319 0.110093
vt 0.499998 0.110092
vt 0.594677 0.110090
vt 0.689355 0.110089
vt 0.784034 0.110088
vt 0.878713 0.110087
vt 0.973391 0.110085
vt 0.026605 0.149754
vt 0.121284 0.149752
vt 0.215962 0.149751
vt 0.310641 0.149750
vt 0.405320 0.149749
vt 0.499998 0.149747
vt 0.594677 0.149746
vt 0.689356 0.149745
vt 0.784034 0.149744
vt 0.878713 0.149742
vt 0.973392 0.149741
vt 0.026606 0.189410
vt 0.121284 0.189408
vt 0.215963 0.189407
vt 0.310642 0.189406
vt 0.405320 0.189404
vt 0.499999 0.189403
vt 0.594678 0.189402
vt 0.689356 0.189401
vt 0.784035 0.189399
vt 0.878714 0.189398
vt 0.973392 0.189397
vt 0.026606 0.229065
vt 0.121285 0.229064
vt 0.215963 0.229063
vt 0.310642 0.229061
vt 0.405321 0.229060
vt 0.499999 0.229059
vt 0.594678 0.229058
vt 0.689357 0.229056
vt 0.784035 0.229055
vt 0.878714 0.229054
vt 0.973393 0.229053
vt 0.026607 0.268721
vt 0.121285 0.268720
vt 0.215964 0.268719
vt 0.310643 0.268717
vt 0.405321 0.268716
vt 0.500000 0.268715
vt 0.594679 0.268714
vt 0.689357 0.268712
vt 0.784036 0.268711
vt 0.878715 0.268710
vt 0.973393 0.268708
vt 0.026607 0.308377
vt 0.121286 0.308376
vt 0.215964 0.308374
vt 0.310643 0.308373
vt 0.405322 0.308372
vt 0.500001 0.308371
vt 0.594679 0.308369
vt 0.689358 0.308368
vt 0.784037 0.308367
vt 0.878715 0.308365
vt 0.973394 0.308364
vt 0.026608 0.348033
vt 0.121286 0.348031
vt 0.215965 0.348030
vt 0.310644 0.348029
vt 0.405322 0.348027
vt 0.500001 0.348026
vt 0.594680 0.348025
vt 0.689358 0.348024
vt 0.784037 0.348022
vt 0.878716 0.348021
vt 0.973394 0.348020
vt 0.026608 0.387688
vt 0.121287 0.387687
vt 0.215966 0.387686
vt 0.310644 0.387685
vt 0.405323 0.387683
vt 0.500002 0.387682
vt 0.594680 0.387681
vt 0.689359 0.387680
vt 0.784038 0.387678
vt 0.878716 0.387677
vt 0.973395 0.387676
vt 0.026609 0.427344
vt 0.121287 0.427343
vt 0.215966 0.427342
vt 0.310645 0.427340
vt 0.405323 0.427339
vt 0.500002 0.427338
vt 0.594681 0.427337
vt 0.689359 0.427335
vt 0.784038 0.427334
vt 0.878717 0.427333
vt 0.973395 0.427332
vt 0.026609 0.467000
vt 0.121288 0.466999
vt 0.215967 0.466997
vt 0.310645 0.466996
vt 0.405324 0.466995
vt 0.500003 0.466994
vt 0.594681 0.466992
vt 0.689360 0.466991
vt 0.784039 0.466990
vt 0.878717 0.466989
vt 0.973396 0.466987
vn 0.000000 0.000000 1.000000
vn 0.000000 0.000000 1.000000
vn 0.000000 -0.000007 1.000000
vn 0.000000 -0.000007 1.000000
vn 0.000000 0.000000 1.000000
vn 0.000000 -0.000007 1.000000
vn 0.000000 0.000000 1.000000
vn 0.000000 -0.000007 1.000000
vn 0.000000 0.000000 1.000000
vn 0.000000 -0.000007 1.000000
vn 0.000000 0.000000 1.000000
vn 0.000000 -0.000007 1.000000
vn 0.000000 0.000000 1.000000
vn 0.000000 -0.000007 1.000000
vn 0.000000 0.000000 1.000000
vn 0.000000 -0.000007 1.000000
vn 0.000000 0.000000 1.000000
vn 0.000000 -0.000007 1.000000
vn 0.000000 0.000000 1.000000
vn 0.000000 -0.000007 1.000000
vn 0.000000 0.000000 1.000000
vn 0.000000 -0.000007 1.000000
vn 0.000000 0.000000 1.000000
vn 0.000000 0.000000 1.000000
vn 0.000000 -0.000000 1.000000
vn 0.000000 0.000000 1.000000
vn 0.000000 0.000000 1.000000
vn 0.000000 0.000000 1.000000
vn 0.000000 0.000000 1.000000
vn 0.000000 0.000000 1.000000
vn 0.000000 0.000000 1.000000
vn 0.000000 0.000000 1.000000
vn 0.000000 0.000000 1.000000
vn 0.000000 0.000007 1.000000
vn 0.000000 0.000007 1.000000
vn 0.000000 0.000007 1.000000
vn 0.000000 0.000007 1.000000
vn 0.000000 0.000007 1.000000
vn 0.000000 0.000007 1.000000
vn 0.000000 0.000007 1.000000
vn 0.000000 0.000007 1.000000
vn 0.000000 0.000007 1.000000
vn 0.000000 0.000007 1.000000
vn 0.000000 0.000007 1.000000
vn 0.000000 0.000000 1.000000
vn 0.000000 0.000000 1.000000
vn 0.000000 0.000000 1.000000
vn 0.000000 0.000000 1.000000
vn 0.000000 0.000000 1.000000
vn 0.000000 0.000000 1.000000
vn 0.000000 0.000000 1.000000
vn 0.000000 0.000000 1.000000
vn 0.000000 0.000000 1.000000
vn 0.000000 0.000000 1.000000
vn 0.000000 0.000000 1.000000
vn 0.000000 0.000000 1.000000
vn 0.000000 0.000000 1.000000
vn 0.000000 0.000000 1.000000
vn 0.000000 0.000000 1.000000
vn 0.000000 0.000000 1.000000
vn 0.000000 0.000000 1.000000
vn 0.000000 0.000000 1.000000
vn 0.000000 0.000000 1.000000
vn 0.000000 0.000000 1.000000
vn 0.000000 0.000000 1.000000
vn 0.000000 0.000000 1.000000
vn 0.000000 -0.000007 1.000000
vn 0.000000 -0.000007 1.000000
vn 0.000000 -0.000007 1.000000
vn 0.000000 -0.000007 1.000000
vn 0.000000 -0.000007 1.000000
vn 0.000000 -0.000007 1.000000
vn 0.000000 -0.000007 1.000000
vn 0.000000 -0.000007 1.000000
vn 0.000000 -0.000007 1.000000
vn 0.000000 -0.000007 1.000000
vn 0.000000 -0.000007 1.000000
vn 0.000000 0.000000 1.000000
vn 0.000000 0.000000 1.000000
vn 0.000000 -0.000000 1.000000
vn 0.000000 0.000000 1.000000
vn 0.000000 0.000000 1.000000
vn 0.000000 0.000000 1.000000
vn 0.000000 0.000000 1.000000
vn 0.000000 0.000000 1.000000
vn 0.000000 0.000000 1.000000
vn 0.000000 0.000000 1.000000
vn 0.000000 0.000000 1.000000
vn 0.000000 0.000007 1.000000
vn 0.000000 0.000007 1.000000
vn 0.000000 0.000007 1.000000
vn 0.000000 0.000007 1.000000
vn 0.000000 0.000007 1.000000
vn 0.000000 0.000007 1.000000
vn 0.000000 0.000007 1.000000
vn 0.000000 0.000007 1.000000
vn 0.000000 0.000007 1.000000
vn 0.000000 0.000007 1.000000
vn 0.000000 0.000007 1.000000
vn 0.000000 0.000000 1.000000
vn 0.000000 0.000000 1.000000
vn 0.000000 0.000000 1.000000
vn 0.000000 0.000000 1.000000
vn 0.000000 0.000000 1.000000
vn 0.000000 0.000000 1.000000
vn 0.000000 0.000000 1.000000
vn 0.000000 0.000000 1.000000
vn 0.000000 0.000000 1.000000
vn 0.000000 0.000000 1.000000
vn 0.000000 0.000000 1.000000
vn 0.000000 0.000000 1.000000
vn 0.000000 0.000000 1.000000
vn 0.000000 0.000000 1.000000
vn 0.000000 0.000000 1.000000
vn 0.000000 0.000000 1.000000
vn 0.000000 0.000000 1.000000
vn 0.000000 0.000000 1.000000
vn 0.000000 0.000000 1.000000
vn 0.000000 0.000000 1.000000
vn 0.000000 0.000000 1.000000
vn 0.000000 0.000000 1.000000
s 1
g Shelf_FIller
usemtl initialShadingGroup
f 1/1/1 2/2/2 13/13/3 12/12/4
f 2/2/2 3/3/5 14/14/6 13/13/3
f 3/3/5 4/4/7 15/15/8 14/14/6
f 4/4/7 5/5/9 16/16/10 15/15/8
f 5/5/9 6/6/11 17/17/12 16/16/10
f 6/6/11 7/7/13 18/18/14 17/17/12
f 7/7/13 8/8/15 19/19/16 18/18/14
f 8/8/15 9/9/17 20/20/18 19/19/16
f 9/9/17 10/10/19 21/21/20 20/20/18
f 10/10/19 11/11/21 22/22/22 21/21/20
f 12/12/4 13/13/3 24/24/23 23/23/24
f 13/13/3 14/14/6 25/25/25 24/24/23
f 14/14/6 15/15/8 26/26/26 25/25/25
f 15/15/8 16/16/10 27/27/27 26/26/26
f 16/16/10 17/17/12 28/28/28 27/27/27
f 17/17/12 18/18/14 29/29/29 28/28/28
f 18/18/14 19/19/16 30/30/30 29/29/29
f 19/19/16 20/20/18 31/31/31 30/30/30
f 20/20/18 21/21/20 32/32/32 31/31/31
f 21/21/20 22/22/22 33/33/33 32/32/32
f 23/23/24 24/24/23 35/35/34 34/34/35
f 24/24/23 25/25/25 36/36/36 35/35/34
f 25/25/25 26/26/26 37/37/37 36/36/36
f 26/26/26 27/27/27 38/38/38 37/37/37
f 27/27/27 28/28/28 39/39/39 38/38/38
f 28/28/28 29/29/29 40/40/40 39/39/39
f 29/29/29 30/30/30 41/41/41 40/40/40
f 30/30/30 31/31/31 42/42/42 41/41/41
f 31/31/31 32/32/32 43/43/43 42/42/42
f 32/32/32 33/33/33 44/44/44 43/43/43
f 34/34/35 35/35/34 46/46/45 45/45/46
f 35/35/34 36/36/36 47/47/47 46/46/45
f 36/36/36 37/37/37 48/48/48 47/47/47
f 37/37/37 38/38/38 49/49/49 48/48/48
f 38/38/38 39/39/39 50/50/50 49/49/49
f 39/39/39 40/40/40 51/51/51 50/50/50
f 40/40/40 41/41/41 52/52/52 51/51/51
f 41/41/41 42/42/42 53/53/53 52/52/52
f 42/42/42 43/43/43 54/54/54 53/53/53
f 43/43/43 44/44/44 55/55/55 54/54/54
f 45/45/46 46/46/45 57/57/56 56/56/57
f 46/46/45 47/47/47 58/58/58 57/57/56
f 47/47/47 48/48/48 59/59/59 58/58/58
f 48/48/48 49/49/49 60/60/60 59/59/59
f 49/49/49 50/50/50 61/61/61 60/60/60
f 50/50/50 51/51/51 62/62/62 61/61/61
f 51/51/51 52/52/52 63/63/63 62/62/62
f 52/52/52 53/53/53 64/64/64 63/63/63
f 53/53/53 54/54/54 65/65/65 64/64/64
f 54/54/54 55/55/55 66/66/66 65/65/65
f 56/56/57 57/57/56 68/68/67 67/67/68
f 57/57/56 58/58/58 69/69/69 68/68/67
f 58/58/58 59/59/59 70/70/70 69/69/69
f 59/59/59 60/60/60 71/71/71 70/70/70
f 60/60/60 61/61/61 72/72/72 71/71/71
f 61/61/61 62/62/62 73/73/73 72/72/72
f 62/62/62 63/63/63 74/74/74 73/73/73
f 63/63/63 64/64/64 75/75/75 74/74/74
f 64/64/64 65/65/65 76/76/76 75/75/75
f 65/65/65 66/66/66 77/77/77 76/76/76
f 67/67/68 68/68/67 79/79/78 78/78/79
f 68/68/67 69/69/69 80/80/80 79/79/78
f 69/69/69 70/70/70 81/81/81 80/80/80
f 70/70/70 71/71/71 82/82/82 81/81/81
f 71/71/71 72/72/72 83/83/83 82/82/82
f 72/72/72 73/73/73 84/84/84 83/83/83
f 73/73/73 74/74/74 85/85/85 84/84/84
f 74/74/74 75/75/75 86/86/86 85/85/85
f 75/75/75 76/76/76 87/87/87 86/86/86
f 76/76/76 77/77/77 88/88/88 87/87/87
f 78/78/79 79/79/78 90/90/89 89/89/90
f 79/79/78 80/80/80 91/91/91 90/90/89
f 80/80/80 81/81/81 92/92/92 91/91/91
f 81/81/81 82/82/82 93/93/93 92/92/92
f 82/82/82 83/83/83 94/94/94 93/93/93
f 83/83/83 84/84/84 95/95/95 94/94/94
f 84/84/84 85/85/85 96/96/96 95/95/95
f 85/85/85 86/86/86 97/97/97 96/96/96
f 86/86/86 87/87/87 98/98/98 97/97/97
f 87/87/87 88/88/88 99/99/99 98/98/98
f 89/89/90 90/90/89 101/101/100 100/100/101
f 90/90/89 91/91/91 102/102/102 101/101/100
f 91/91/91 92/92/92 103/103/103 102/102/102
f 92/92/92 93/93/93 104/104/104 103/103/103
f 93/93/93 94/94/94 105/105/105 104/104/104
f 94/94/94 95/95/95 106/106/106 105/105/105
f 95/95/95 96/96/96 107/107/107 106/106/106
f 96/96/96 97/97/97 108/108/108 107/107/107
f 97/97/97 98/98/98 109/109/109 108/108/108
f 98/98/98 99/99/99 110/110/110 109/109/109
f 100/100/101 101/101/100 112/112/111 111/111/112
f 101/101/100 102/102/102 113/113/113 112/112/111
f 102/102/102 103/103/103 114/114/114 113/113/113
f 103/103/103 104/104/104 115/115/115 114/114/114
f 104/104/104 105/105/105 116/116/116 115/115/115
f 105/105/105 106/106/106 117/117/117 116/116/116
f 106/106/106 107/107/107 118/118/118 117/117/117
f 107/107/107 108/108/108 119/119/119 118/118/118
f 108/108/108 109/109/109 120/120/120 119/119/119
f 109/109/109 110/110/110 121/121/121 120/120/120
