{
  "accessors": [
    {
      "bufferView": 2,
      "componentType": 5126,
      "count": 5995,
      "max": [
        3.1180646419525146,
        2.1670942306518555,
        1.2039530277252197
      ],
      "min": [
        -3.1180646419525146,
        -1.6110440492630005,
        -1.1264063119888306
      ],
      "type": "VEC3"
    },
    {
      "bufferView": 2,
      "byteOffset": 71940,
      "componentType": 5126,
      "count": 5995,
      "max": [
        1.0,
        1.0,
        1.0
      ],
      "min": [
        -1.0,
        -1.0,
        -1.0
      ],
      "type": "VEC3"
    },
    {
      "bufferView": 1,
      "componentType": 5126,
      "count": 5995,
      "max": [
        0.983927845954895,
        0.9705625772476196
      ],
      "min": [
        0.016072111204266548,
        0.016072077676653862
      ],
      "type": "VEC2"
    },
    {
      "bufferView": 1,
      "byteOffset": 47960,
      "componentType": 5126,
      "count": 5995,
      "max": [
        0.983927845954895,
        0.9705625772476196
      ],
      "min": [
        0.016072111204266548,
        0.016072077676653862
      ],
      "type": "VEC2"
    },
    {
      "bufferView": 1,
      "byteOffset": 95920,
      "componentType": 5126,
      "count": 5995,
      "max": [
        0.983927845954895,
        0.9705625772476196
      ],
      "min": [
        0.016072111204266548,
        0.016072077676653862
      ],
      "type": "VEC2"
    },
    {
      "bufferView": 0,
      "componentType": 5125,
      "count": 28584,
      "type": "SCALAR"
    }
  ],
  "asset": {
    "extras": {
      "author": "Lkibadur 3D (https://sketchfab.com/Lkibadur_3d)",
      "license": "CC-BY-4.0 (http://creativecommons.org/licenses/by/4.0/)",
      "source": "https://sketchfab.com/3d-models/simple-camera-2c4b6ae934244de8ad666631fb8f1756",
      "title": "Simple Camera"
    },
    "generator": "Sketchfab-15.53.0",
    "version": "2.0"
  },
  "bufferViews": [
    {
      "buffer": 0,
      "byteLength": 114336,
      "name": "floatBufferViews",
      "target": 34963
    },
    {
      "buffer": 0,
      "byteLength": 143880,
      "byteOffset": 114336,
      "byteStride": 8,
      "name": "floatBufferViews",
      "target": 34962
    },
    {
      "buffer": 0,
      "byteLength": 143880,
      "byteOffset": 258216,
      "byteStride": 12,
      "name": "floatBufferViews",
      "target": 34962
    }
  ],
  "buffers": [
    {
      "byteLength": 402096,
      "uri": "scene.bin"
    }
  ],
  "images": [
    {
      "uri": "textures/Material_baseColor.png"
    },
    {
      "uri": "textures/Material_metallicRoughness.png"
    }
  ],
  "materials": [
    {
      "doubleSided": true,
      "name": "Material",
      "pbrMetallicRoughness": {
        "baseColorTexture": {
          "index": 0
        },
        "metallicFactor": 0.0,
        "metallicRoughnessTexture": {
          "index": 1
        }
      }
    }
  ],
  "meshes": [
    {
      "name": "Object_0",
      "primitives": [
        {
          "attributes": {
            "NORMAL": 1,
            "POSITION": 0,
            "TEXCOORD_0": 2,
            "TEXCOORD_1": 3,
            "TEXCOORD_2": 4
          },
          "indices": 5,
          "material": 0,
          "mode": 4
        }
      ]
    }
  ],
  "nodes": [
    {
      "children": [
        1
      ],
      "matrix": [
        1.0,
        0.0,
        0.0,
        0.0,
        0.0,
        2.220446049250313e-16,
        -1.0,
        0.0,
        0.0,
        1.0,
        2.220446049250313e-16,
        0.0,
        0.0,
        0.0,
        0.0,
        1.0
      ],
      "name": "Sketchfab_model"
    },
    {
      "children": [
        2
      ],
      "name": "root"
    },
    {
      "children": [
        3
      ],
      "matrix": [
        1.0,
        0.0,
        0.0,
        0.0,
        0.0,
        2.220446049250313e-16,
        1.0,
        0.0,
        0.0,
        -1.0,
        2.220446049250313e-16,
        0.0,
        0.0,
        0.0,
        0.0,
        1.0
      ],
      "name": "GLTF_SceneRootNode"
    },
    {
      "children": [
        4
      ],
      "name": "Cube_0"
    },
    {
      "mesh": 0,
      "name": "Object_4"
    }
  ],
  "samplers": [
    {
      "magFilter": 9729,
      "minFilter": 9987,
      "wrapS": 10497,
      "wrapT": 10497
    }
  ],
  "scene": 0,
  "scenes": [
    {
      "name": "Sketchfab_Scene",
      "nodes": [
        0
      ]
    }
  ],
  "textures": [
    {
      "sampler": 0,
      "source": 0
    },
    {
      "sampler": 0,
      "source": 1
    }
  ]
}
